<svg width="500" height="500" viewBox="0 0 500 500" fill="none" xmlns="http://www.w3.org/2000/svg">
<path d="M0 0H500V500H0V0Z" fill="#1A2B33"/>
<path d="M249.56 409.292C161.896 409.292 90.83 338.226 90.83 250.562C90.83 162.897 161.896 91.8315 249.56 91.8315C337.224 91.8315 408.29 162.897 408.29 250.562C408.29 338.226 337.224 409.292 249.56 409.292Z" fill="white"/>
<path d="M259.67 329.991C259.67 329.991 284.5 351.161 286.5 355.161C288.5 359.161 283.33 408.821 283.33 408.821C283.33 408.821 233 412.661 229.5 411.661C226 410.661 211.67 382.161 211.67 382.161L217.67 354.161C217.67 354.161 237.36 334.971 243.57 333.231C249.78 331.491 259.67 329.991 259.67 329.991Z" fill="white"/>
<path d="M128.06 296.821C128.06 296.821 108.06 307.821 98.06 313.821V408.821H196.26C196.26 408.821 188.56 381.821 188.06 380.321C187.56 378.821 128.06 296.821 128.06 296.821Z" fill="#1A2B33"/>
<path d="M282.69 356.571C280.431 356.096 278.352 354.994 276.69 353.391C273.56 350.571 268.5 346.691 268 346.911C267.703 347.045 267.451 347.262 267.274 347.535C267.097 347.808 267.002 348.126 267 348.451C267 349.201 266.43 346.761 266.2 346.451C265.907 344.903 265.726 343.336 265.66 341.761C265.903 341.163 266.215 340.596 266.59 340.071C268.728 340.61 270.838 341.257 272.91 342.011C273.34 342.391 281.53 353.641 282.66 354.201C283.79 354.761 282.69 356.571 282.69 356.571Z" fill="#C1C1C1"/>
<path d="M298.06 300.821L358.56 327.731V408.821H309.56L298.06 300.821Z" fill="#1A2B33"/>
<path d="M281.31 364.321C278.54 383.941 280.62 408.821 280.62 408.821H318.37C318.51 407.371 319.89 402.061 321.8 395.101L321.92 394.641C326.83 376.781 335.04 348.641 334.86 346.281C334.61 343.031 321.11 336.781 320.86 335.071C320.61 333.361 326.86 324.531 327.61 323.071C328 322.291 316.28 312.151 304.87 302.541L304.79 302.471C294.18 293.531 283.86 285.071 283.86 285.071L276.68 297.491C276.68 297.491 284.23 343.651 281.31 364.321Z" fill="#1A2B33"/>
<path d="M222.26 365.791C222.26 365.791 224.93 360.951 227.81 362.791C230.69 364.631 232.56 373.921 234.31 375.541C236.06 377.161 234.18 382.041 233.68 386.921C233.18 391.801 232.56 406.221 232.68 409.261C232.8 412.301 236.43 410.921 236.43 410.921L239.43 404.171C239.43 404.171 240.93 384.041 241.18 378.291C241.43 372.541 229.18 350.791 229.18 350.791C229.18 350.791 222.2 363.391 222.26 365.791Z" fill="#C1C1C1"/>
<path d="M235.39 408.821L250.27 410.821L279.37 408.821C278.6 395.821 270.37 379.631 266.23 372.351C265.07 370.281 264.23 368.931 264.03 368.581L264 368.491L263.25 368.631L242.62 372.491L240.73 372.841C240.58 373.211 240.43 373.601 240.29 373.991C235.55 386.961 235.39 408.821 235.39 408.821Z" fill="#6F8C93"/>
<path d="M235.39 408.821L240.74 409.541C240.8 406.891 241.05 396.541 241.68 392.071C242.087 388.353 243.444 384.803 245.62 381.761C247.31 379.261 249.81 377.761 256.5 376.311C259.959 375.58 263.257 374.224 266.23 372.311C265.07 370.241 264.23 368.891 264.03 368.541L263.23 368.591L256.68 368.971C256.68 368.971 243.81 371.721 243.62 371.781C243.43 371.841 243.2 372.031 242.62 372.411L240.29 373.911C235.55 386.961 235.39 408.821 235.39 408.821Z" fill="#1A2B33"/>
<path d="M224.06 348.821C231.38 357.241 236.52 370.581 238.06 374.911C238.207 375.323 238.479 375.679 238.837 375.93C239.195 376.181 239.623 376.314 240.06 376.311C246.204 376.27 252.332 375.678 258.37 374.541C263.23 373.461 267.07 371.741 267.04 368.991C266.96 361.491 267.04 334.361 267.04 334.361C267.64 328.981 258.37 325.821 252.54 328.991C249.624 330.577 246.619 331.992 243.54 333.231C242.76 333.551 242.33 333.701 242.33 333.701C229.67 334.081 219.5 343.581 224.06 348.821Z" fill="#6F8C93"/>
<path d="M224.06 348.821C231.38 357.241 236.52 370.581 238.06 374.911C238.207 375.323 238.479 375.679 238.837 375.93C239.195 376.181 239.623 376.314 240.06 376.311C246.204 376.27 252.332 375.678 258.37 374.541C258.37 374.541 249.06 375.711 244.37 371.451C242.47 369.741 237.29 353.951 237.92 346.921C238.55 339.891 243.56 333.301 243.56 333.301V333.241C242.78 333.561 242.35 333.711 242.35 333.711C229.67 334.081 219.5 343.581 224.06 348.821Z" fill="#1A2B33"/>
<path d="M244.4 332.961C244.75 332.811 253.69 328.961 258.31 333.751L258.92 334.371C263.92 339.371 280.46 355.071 281.92 354.821C282.83 343.101 278 302.871 278 302.871L254.19 306.141L246.41 327.491L244.4 332.961Z" fill="white"/>
<path d="M244.4 332.961C244.75 332.811 253.69 328.961 258.31 333.751L258.92 334.371C258.037 333.125 257.032 331.969 255.92 330.921C255.08 330.421 255.04 330.301 255.62 328.471C256.2 326.641 256.87 319.721 258.54 314.971C260.21 310.221 262.62 308.881 262.62 308.881L261.75 308.261L255 308.491C253.955 310.049 253.14 311.75 252.58 313.541C251.16 317.371 247.16 326.121 247 326.541C246.829 326.885 246.638 327.219 246.43 327.541L244.4 332.961Z" fill="#C1C1C1"/>
<path d="M177.94 272.311C177.94 272.311 193.25 322.231 232 333.491C232 333.491 232.31 333.611 232.87 333.761C236.167 334.682 239.664 334.604 242.916 333.536C246.169 332.467 249.031 330.458 251.14 327.761C251.14 327.761 253.72 311.011 257.14 306.301C260.56 301.591 213.14 207.901 213.14 207.901L191.14 205.811L189.68 205.671C189.68 205.671 187.39 237.311 181.33 261.081C180.396 264.881 179.264 268.63 177.94 272.311Z" fill="#1A2B33"/>
<path d="M232.85 333.751C236.147 334.672 239.644 334.593 242.896 333.525C246.149 332.457 249.011 330.448 251.12 327.751C251.12 327.751 253.7 311.001 257.12 306.291L248.8 308.291C248.8 308.291 246 313.061 243.33 314.641C242.456 315.083 241.694 315.718 241.102 316.497C240.509 317.277 240.102 318.181 239.91 319.141C239.83 319.971 239.91 321.971 239.33 322.971C238.75 323.971 239.02 333.581 234.67 333.321C233.62 333.191 233.08 333.391 232.85 333.751Z" fill="#7D9BA5"/>
<path d="M181.37 261.051C181.5 260.741 181.65 260.341 181.81 259.821C185.68 247.331 191.81 206.571 191.81 206.571L191.18 205.781L189.72 205.641C189.72 205.641 187.43 237.281 181.37 261.051Z" fill="#7D9BA5"/>
<path d="M183.57 331.001C193.49 346.311 215.83 373.571 215.83 373.571C221.13 369.651 233.88 347.291 236.04 340.621C238.2 333.951 242.36 333.701 242.36 333.701C202.89 335.251 180.11 278.001 178.09 272.701L177.94 272.311C180.17 267.441 182.2 258.651 183.64 251.311C184.98 244.441 185.81 238.811 185.81 238.811C181.961 241.709 178.347 244.905 175 248.371C170.19 253.471 163 264.531 163 267.801C163 270.421 160.41 295.281 183.57 331.001Z" fill="white"/>
<path d="M177.94 272.311C180.17 267.441 182.2 258.651 183.64 251.311C182.57 252.641 181.23 254.261 179.64 256.091C175.44 261.071 175.61 265.951 177.94 272.311Z" fill="#C1C1C1"/>
<path d="M173.37 179.351C175.799 187.373 178.769 195.221 182.26 202.841C184.52 207.551 196 209.971 196 209.971C196 209.971 198.75 237.581 199.93 242.551C201.11 247.521 209.61 269.371 216.67 278.011C223.73 286.651 245.17 307.741 251.45 309.511C257.73 311.281 271.45 310.881 275.88 307.451C277.556 305.984 279.032 304.303 280.27 302.451C283.98 297.261 287.81 290.231 288.92 288.361C290.27 286.081 292.92 283.791 295.53 280.191C295.95 279.611 296.36 279.001 296.77 278.351C298.57 275.481 300.66 271.581 302.67 267.601C303.94 265.071 305.18 262.501 306.28 260.141C309.13 254.051 317.28 239.631 317.28 239.631C318.07 238.101 318.86 236.371 319.63 234.531C320.13 233.321 320.63 232.071 321.1 230.801C323.184 225.53 324.774 220.077 325.85 214.511C326.1 212.781 326.37 211.221 326.62 209.911C327.16 207.081 327.62 205.351 327.62 205.351C327.62 205.351 351.31 119.501 278.42 103.801C220.31 91.2814 200.76 121.061 194.2 141.461C192.36 147.021 191.248 152.796 190.89 158.641C190.89 158.641 182.51 150.641 175.32 154.451C168.13 158.261 171.53 172.551 173.37 179.351Z" fill="#7D9BA5"/>
<path d="M279.37 266.261C279.37 266.261 275.5 273.321 274.69 272.641C273.88 271.961 276 266.761 276 266.761L279.37 266.261Z" fill="#6F8C93"/>
<path d="M285 236.951V237.031L286.82 237.321C286.815 237.255 286.815 237.188 286.82 237.121C287.03 233.251 292.37 233.181 292.71 233.181C289.89 232.711 288.11 233.091 286.97 233.771C286.052 234.325 285.384 235.214 285.11 236.251V236.401C285.06 236.582 285.024 236.765 285 236.951Z" fill="white"/>
<path d="M273.52 289.741C275.963 290.214 278.453 290.409 280.94 290.321C281.69 290.321 280.85 292.451 277.31 292.871C273.77 293.291 271.04 292.871 269.02 293.081C267 293.291 271.31 290.451 271.31 290.451L273.52 289.741Z" fill="#6F8C93"/>
<path d="M173.37 179.351C175.799 187.373 178.769 195.221 182.26 202.841C183.21 204.841 185.77 206.391 188.43 207.541C190.876 208.574 193.409 209.388 196 209.971C196 209.971 198.75 237.581 199.93 242.551C201.105 246.592 202.527 250.556 204.19 254.421C204.27 254.631 204.34 254.821 204.41 254.981C207.79 263.121 212.48 272.891 216.67 277.981C223.74 286.611 245.17 307.711 251.45 309.481C249.102 307.581 247.58 304.847 247.2 301.851C247.095 300.989 247.162 300.114 247.397 299.277C247.632 298.441 248.03 297.659 248.568 296.977C249.106 296.294 249.774 295.725 250.533 295.302C251.292 294.879 252.127 294.61 252.99 294.511C253.47 294.451 253.99 294.421 254.48 294.401C260.26 294.221 265.16 293.401 269.81 292.971C274.46 292.541 275.43 290.561 276.54 289.751C277.65 288.941 282.06 285.751 282.39 285.501C280.13 286.191 277.798 286.617 275.44 286.771C271.592 287.004 267.732 286.91 263.9 286.491L263.66 286.391C262.89 285.671 260.35 281.961 267.77 281.961C269 281.791 270.11 280.961 271.27 280.891C272.69 280.801 278.1 280.891 280.02 280.891C282.323 280.783 284.586 280.243 286.69 279.301C288.77 278.391 290.85 276.971 290.85 276.471C290.85 275.971 289.69 276.721 286.69 276.801C283.69 276.881 280.19 275.141 276.69 275.051C274.816 274.925 272.934 275.066 271.1 275.471C270.603 275.589 270.081 275.521 269.63 275.281C270.538 272.705 271.892 270.308 273.63 268.201C281.01 267.621 282 262.951 283.83 259.041C285.66 255.131 285.41 245.701 285.58 240.451C285.75 235.201 286.99 233.621 290.88 233.201C294.77 232.781 303.7 237.691 314 235.871C315.913 235.643 317.791 235.18 319.59 234.491C320.98 231.171 322.29 227.491 323.36 224.121C324.412 220.969 325.23 217.743 325.81 214.471C326.06 212.741 326.33 211.181 326.58 209.871L322.08 205.691L293.25 199.491C293.25 199.491 266.46 189.821 254.46 185.821C242.46 181.821 225.8 164.491 220.13 160.821C214.94 157.461 199.13 144.341 194.21 141.371C192.37 146.931 191.258 152.706 190.9 158.551C190.9 158.551 185.45 153.361 179.58 153.341C178.116 153.323 176.67 153.666 175.37 154.341C168.13 158.151 171.53 172.551 173.37 179.351Z" fill="#1A2B33"/>
<path d="M262.95 285.421C263.65 286.155 264.607 286.589 265.62 286.631C267.62 286.931 263.5 287.821 263.5 287.821C262.975 287.726 262.464 287.565 261.98 287.341C261.92 287.181 261.78 286.231 261.78 286.231L262.95 285.421Z" fill="#1A2B33"/>
<path d="M302.69 267.491C303.96 264.961 305.2 262.391 306.3 260.031C309.15 253.941 317.3 239.521 317.3 239.521C318.09 237.991 318.88 236.261 319.65 234.421C320.15 233.211 320.65 231.961 321.12 230.691C321.12 230.691 318.82 235.511 314.06 235.801C314.06 235.801 314.45 238.051 312.95 242.681C311.45 247.311 308.69 249.921 305.82 255.181C302.95 260.441 303.58 265.741 302.72 267.441L302.69 267.491Z" fill="white"/>
<path d="M308.56 232.571C310.222 232.692 311.892 232.496 313.48 231.991C313.81 233.821 314.05 235.821 314.05 235.821C315.982 235.708 317.877 235.24 319.64 234.441C321.03 231.121 322.34 227.441 323.41 224.071H314.68C315.208 224.681 315.689 225.33 316.12 226.011C316.875 226.92 317.844 227.628 318.94 228.071C318.002 228.728 316.894 229.096 315.75 229.131C313.06 231.941 308.56 232.571 308.56 232.571Z" fill="white"/>
<path d="M270 259.491C270.47 260.791 273.64 263.741 276.88 264.291C278.24 264.511 279.5 265.581 278.04 266.661C276.679 267.445 275.183 267.968 273.63 268.201C276.497 268.33 279.303 267.345 281.46 265.451C283.29 263.621 285.79 261.991 286.89 261.791C287.99 261.591 288.67 262.391 288.46 263.201C289.29 262.791 290.88 260.041 290.88 257.541C290.772 255.938 290.056 254.436 288.88 253.341C288.15 254.341 288.36 255.681 288.11 256.061C287.86 256.441 287.34 249.061 287.34 249.061C286.828 245.123 286.664 241.148 286.85 237.181C286.85 236.091 286.93 234.971 287 233.831C286.082 234.385 285.414 235.274 285.14 236.311V236.461L285.05 237.011C284.13 243.431 284.53 248.921 282.85 251.341C280.19 255.171 274.64 256.171 272.68 255.711C270.38 255.111 268.81 256.031 270 259.491Z" fill="white"/>
<path d="M112.39 310.541C113.39 311.871 126.89 317.991 134.73 322.151C136.17 322.991 135.32 326.151 134.11 329.961C132.65 334.501 130.69 339.961 131.41 343.781C132.75 350.781 196.28 408.781 196.28 408.781H229.73C228.308 399.962 225.687 391.38 221.94 383.271C219.338 377.549 215.879 372.258 211.68 367.581C160.74 310.691 162.42 273.581 162.95 268.401C162.95 267.981 163.03 267.771 163.03 267.771C132.66 282.781 111.39 309.201 112.39 310.541Z" fill="#1A2B33"/>
<path d="M112.39 310.541C113.39 311.871 126.89 317.991 134.73 322.151C136.17 322.991 135.32 326.151 134.11 329.961C134.37 329.381 136.98 323.521 135.44 321.321C133.9 319.121 121.75 313.631 119 312.071C118.186 311.62 117.413 311.098 116.69 310.511C116.351 310.223 116.13 309.82 116.069 309.379C116.008 308.938 116.112 308.491 116.36 308.121C132.36 284.491 162.95 268.491 162.95 268.491C162.95 268.071 163.03 267.861 163.03 267.861C132.66 282.781 111.39 309.201 112.39 310.541Z" fill="white"/>
<path d="M196 209.971C196 209.971 198.75 237.581 199.93 242.551C201.105 246.592 202.527 250.556 204.19 254.421C202.357 248.474 200.977 242.397 200.06 236.241C199.45 231.481 198.17 217.421 197.59 210.401L196 209.971Z" fill="#7D9BA5"/>
<path d="M280.28 302.401C283.99 297.211 287.82 290.181 288.93 288.311C290.28 286.031 292.93 283.741 295.54 280.141C294.179 281.332 292.747 282.437 291.25 283.451C289.71 284.451 287.98 284.841 286.68 286.621C283.44 291.071 283.86 295.991 280.28 302.401Z" fill="#6F8C93"/>
<path d="M173.37 179.351C175.799 187.373 178.769 195.221 182.26 202.841C183.21 204.841 185.77 206.391 188.43 207.541C186.237 206.243 184.493 204.307 183.43 201.991C181.9 198.321 172.66 178.101 173.02 162.911C173.22 154.371 179.1 153.381 179.58 153.341C178.116 153.323 176.67 153.666 175.37 154.341C168.13 158.151 171.53 172.551 173.37 179.351Z" fill="#7D9BA5"/>
<path d="M290.16 275.991C288.932 276.339 287.654 276.478 286.38 276.401C284.23 276.271 279.88 274.991 278.01 274.741C276.818 274.593 275.612 274.593 274.42 274.741C275.596 274.269 276.871 274.098 278.13 274.241C280.32 274.491 286.51 276.801 290.16 275.991Z" fill="white"/>
<path d="M255.68 335.071C257.398 336.246 258.836 337.785 259.891 339.579C260.945 341.374 261.59 343.379 261.78 345.451C262.56 352.701 262.53 366.781 263.23 368.451C263.93 370.121 265.59 369.691 265.4 370.251C265.21 370.811 259.9 373.101 258.4 373.001C256.9 372.901 258.4 372.101 259 371.101C259.6 370.101 258.19 349.721 256.75 346.161C255.31 342.601 248.93 338.721 249.43 337.351C249.93 335.981 251.68 333.641 255.68 335.071Z" fill="#8BAAAF"/>
<path d="M324.18 323.571C323.44 325.071 316.31 333.201 318.31 335.821C320.31 338.441 331.4 342.961 332.68 346.911C333.96 350.861 324.94 383.221 321.93 394.611C326.84 376.751 335.05 348.611 334.87 346.251C334.62 343.001 321.12 336.751 320.87 335.041C320.62 333.331 326.87 324.501 327.62 323.041C328.01 322.261 316.29 312.121 304.88 302.511C306.19 303.761 324.91 322.121 324.18 323.571Z" fill="white"/>
<path d="M358.56 327.731C358.56 327.731 367.23 332.601 371.56 348.541C375.89 364.481 377.89 388.661 377.89 388.661L347.56 386.161V360.491L358.56 327.731Z" fill="#1A2B33"/>
<path d="M224.31 314.951C224.48 314.641 224.47 314.281 224.26 314.141C224.05 314.001 224.04 314.011 223.83 313.621C223.62 313.231 223.89 313.221 223.58 312.681C223.27 312.141 223.21 311.991 222.81 311.841C222.366 311.641 222.01 311.285 221.81 310.841C221.66 310.461 221.86 310.211 221.28 310.111C220.7 310.011 220.56 309.981 220.35 309.921C220.14 309.861 219.95 309.711 219.57 309.591L218.81 310.231L219.14 311.751C219.14 311.751 220.81 314.251 220.87 314.271C220.93 314.291 223.8 316.481 223.8 316.481L224.47 315.851C224.45 315.546 224.396 315.245 224.31 314.951Z" fill="#1A2B33"/>
<path d="M253.6 289.011C254.14 288.541 253.6 287.011 252.4 285.661C251.2 284.311 249.79 283.551 249.25 284.021" stroke="#1A2B33" stroke-width="0.3" stroke-miterlimit="10"/>
<path d="M373.06 211.802C357.44 221.322 327.58 228.932 299.75 222.802C237.15 208.952 227.75 181.672 207.75 168.132C192.97 158.132 162.58 148.392 154.52 132.042C148.73 120.282 157.81 106.852 170.91 107.042C178.79 107.162 189.91 110.382 204.69 121.442C249.5 155.032 275.69 153.852 309.08 162.092C342.47 170.332 428.81 177.832 373.06 211.802Z" fill="#1A2B33"/>
<path d="M205.39 123.821C205.39 123.821 187.3 109.661 172.13 109.321C168.993 109.198 165.895 110.04 163.252 111.733C160.609 113.427 158.549 115.89 157.35 118.791C157.136 119.347 156.955 119.914 156.81 120.491C156.81 120.491 159.88 115.581 167.31 114.911C182.89 113.491 203.31 131.411 203.31 131.411" fill="#304249"/>
<path d="M341.48 171.071C341.48 171.071 385.19 178.571 387.12 190.941C389.29 204.791 355.98 217.821 345.12 219.701C335.41 221.381 312.12 224.951 286.53 217.951C260.94 210.951 215.72 167.071 202.63 158.321C202.63 158.321 201.63 156.821 242.33 177.321C268.09 190.321 317.44 195.321 338.33 190.601C338.56 183.321 340.31 180.661 341.48 171.071Z" fill="#304249"/>
<path d="M338.35 190.601C338.35 190.601 341.35 177.961 344.45 162.771C345.39 158.101 346.35 153.181 347.24 148.321C348.54 141.131 350.42 127.881 351.24 119.891C351.49 117.501 351.65 115.591 351.68 114.441C351.801 110.725 351.496 107.008 350.77 103.361C350.77 103.191 350.7 103.041 350.68 102.931L350.62 102.661C349.23 96.6614 346.25 90.6614 340.26 87.1514C331.47 81.9614 317.26 82.8314 304.37 83.7014C298.83 84.0714 293.54 84.4414 289.04 84.3314C277.5 72.5514 269.12 54.1514 257.28 54.0014C237.39 53.7414 210.39 90.1114 199 128.841C194.67 143.571 281.83 194.141 338.35 190.601Z" fill="#1A2B33"/>
<path d="M283.56 85.5715C292.06 94.2015 306.94 99.6315 316.12 101.512C322.167 102.89 328.098 104.735 333.86 107.032C337.06 108.032 342.31 108.162 340.18 100.752C339.388 97.5411 337.825 94.5723 335.626 92.103C333.426 89.6337 330.658 87.7384 327.56 86.5815C321.75 84.2115 306.01 83.7515 304.41 83.7115C317.29 82.8415 331.51 81.9715 340.3 87.1615C346.3 90.7015 349.3 96.6415 350.66 102.672L350.72 102.942C350.72 103.052 350.77 103.202 350.81 103.372C351.536 107.018 351.841 110.736 351.72 114.452C351.72 114.612 351.72 114.772 351.72 114.952V115.042C351.66 116.212 351.51 117.882 351.3 119.902C350.45 127.902 348.57 141.142 347.3 148.322C346.41 153.182 345.45 158.102 344.51 162.772C336.91 163.302 319.51 162.442 319.51 162.442C319.51 162.442 329.67 122.822 323.67 115.942C317.67 109.062 314.92 110.572 298.42 103.442C281.92 96.3115 273.55 80.7015 266.29 69.5715C259.03 58.4415 251.23 57.2015 251.23 57.2015C264.31 53.8215 275.06 76.9415 283.56 85.5715Z" fill="#304249"/>
<path d="M345.15 159.291C345.15 159.291 345.69 159.291 345.5 159.651C345.31 160.011 343.87 168.981 343.12 172.481C342.37 175.981 339.06 189.571 339.03 189.701C339 189.831 339.3 190.411 338.35 190.611C338.35 190.611 285.73 197.491 215.1 148.321C215.1 148.321 279.83 164.091 345.15 159.291Z" fill="white"/>
<path d="M294.435 306.891C294.409 305.407 294.234 303.93 293.913 302.482C293.612 301.033 293.22 299.603 292.74 298.203C292.269 296.799 291.708 295.427 291.06 294.095C290.433 292.748 289.647 291.48 288.719 290.319C289.298 291.671 289.817 293.041 290.321 294.41C290.825 295.778 291.3 297.154 291.767 298.533C292.234 299.911 292.691 301.297 293.141 302.685C293.591 304.073 294.008 305.472 294.435 306.891Z" fill="white"/>
<path d="M314.5 328.278C327.859 327.765 329.363 311.278 329.363 310.379C329.363 309.479 327.782 307.939 322.993 306.055C318.204 304.171 315.285 302.967 314.32 304.771C313.845 305.544 313.392 306.225 312.958 306.837C309.014 312.379 306.671 311.782 305.335 311.396C302.698 310.636 300.123 309.091 296.876 301.476C293.63 293.861 290.047 283.834 280.542 279.595" fill="#1A2B33"/>
<path d="M279.243 281.137C279.417 281.288 285.057 286.135 286.192 288.542C287.692 291.711 288.227 294.688 290.474 302.266C292.72 309.844 295.741 314.726 298.278 318.436C301.625 323.283 306.854 328.352 314.042 328.28" fill="#1A2B33"/>
<path d="M279.243 281.137C279.477 281.293 285.372 284.997 287.736 288.777C289.24 291.188 292.468 299.826 294.78 305.377C297.093 310.929 299.309 313.564 301.04 315.139C303.742 315.268 303.322 313.11 303.322 313.11C303.773 313.241 304.25 313.251 304.707 313.139C305.163 313.028 305.582 312.798 305.922 312.473C305.922 312.473 305.655 312 305.314 311.388C302.677 310.628 300.102 309.084 296.855 301.469C293.608 293.854 290.026 283.826 280.521 279.587" fill="white"/>
<path d="M287.738 290.769C288.242 292.058 288.622 293.385 289.037 294.701L290.238 298.664L291.443 302.631C291.838 303.953 292.242 305.271 292.62 306.605C292.435 305.231 292.17 303.868 291.829 302.524C291.504 301.173 291.128 299.845 290.73 298.519C290.333 297.193 289.896 295.877 289.416 294.577C288.935 293.278 288.437 291.972 287.738 290.769Z" fill="white"/>
<path d="M316.343 326.437C313.087 326.994 307.306 328.676 296.73 316.086C300.54 321.868 306.066 325.682 308.721 326.703" fill="#1A2B33"/>
<path d="M279 281.783C281.625 284.067 284.851 287.207 285.615 288.823C286.609 290.923 287.182 292.985 288.124 296.399C288.572 298.009 289.13 300.011 289.862 302.457C292.083 309.944 295.097 314.922 297.751 318.806C300.951 323.439 306.346 328.94 313.917 328.94" fill="#1A2B33"/>
<path d="M314.521 328.921C328.848 328.371 330 310.558 330 310.379C330 308.514 326.309 306.673 323.213 305.458L322.856 305.317C317.94 303.387 314.967 302.217 313.751 304.449C313.301 305.177 312.853 305.854 312.419 306.464C308.85 311.483 306.794 311.141 305.646 310.821L305.495 310.776C303.208 310.118 300.702 308.836 297.45 301.221C297.204 300.642 296.957 300.063 296.706 299.461C293.632 292.139 289.806 283.029 280.786 279" fill="#1A2B33"/>
<path d="M280.359 280.224C288.852 284.063 292.545 292.873 295.519 299.959C295.777 300.56 296.026 301.15 296.266 301.727C299.355 308.947 301.901 311.035 304.985 311.958L305.059 312.027H305.229C307.323 312.607 309.778 312.381 313.467 307.202C313.919 306.565 314.386 305.851 314.853 305.102L314.874 305.067C315.079 304.681 315.473 304.521 316.032 304.521C317.326 304.521 319.507 305.38 322.379 306.505L322.736 306.646C327.635 308.576 328.709 309.987 328.709 310.371C328.443 313.426 327.646 316.411 326.352 319.191C323.784 324.586 319.789 327.425 314.467 327.63" fill="#7D9BA5"/>
<path d="M313.913 327.647C306.902 327.647 301.833 322.448 298.809 318.071C296.083 314.081 293.259 309.384 291.087 302.082C290.366 299.65 289.81 297.652 289.364 296.046C288.399 292.572 287.819 290.466 286.769 288.267C285.692 285.972 280.953 281.783 279.778 280.75" fill="#7D9BA5"/>
<path d="M329.031 310.595C329.118 310.595 329.201 310.595 329.282 310.595L329.222 309.311C325.697 309.479 317.22 305.294 315.289 303.671L314.461 304.653C316.256 306.157 324.883 310.595 329.031 310.595Z" fill="#1A2B33"/>
<path d="M328.902 313.753L329.077 312.479C322.825 311.616 316.849 308.531 313.703 305.856L312.871 306.835C316.16 309.63 322.393 312.861 328.902 313.753Z" fill="#1A2B33"/>
<path d="M291.39 309.456C291.655 309.044 291.997 308.687 292.396 308.404C292.79 308.103 293.199 307.823 293.622 307.564C295.106 306.627 296.66 305.805 298.27 305.105C298.639 304.945 299.019 304.787 299.401 304.636C299.83 304.468 300.335 304.325 300.845 304.549C301.054 304.643 301.237 304.786 301.379 304.965C301.521 305.145 301.618 305.355 301.662 305.58C301.709 305.8 301.703 306.028 301.645 306.246C301.586 306.463 301.476 306.663 301.324 306.829C301.052 307.087 300.72 307.274 300.359 307.373L300.218 307.422C299.832 307.562 299.446 307.723 299.029 307.912C298.34 308.221 297.62 308.584 296.764 309.053C296.038 309.44 295.335 309.868 294.658 310.336C294.361 310.544 294.081 310.775 293.821 311.027L293.79 311.056C293.523 311.319 293.159 311.676 292.603 311.676C292.36 311.677 292.12 311.614 291.909 311.493C291.699 311.372 291.523 311.197 291.402 310.987C291.267 310.755 291.195 310.491 291.193 310.223C291.191 309.955 291.259 309.69 291.39 309.456Z" fill="white"/>
<path d="M292.601 312.319C293.419 312.319 293.933 311.815 294.238 311.514L294.269 311.485C294.506 311.257 294.76 311.048 295.029 310.86C295.686 310.406 296.368 309.991 297.073 309.616C297.913 309.155 298.617 308.8 299.291 308.497C299.695 308.315 300.063 308.161 300.449 308.026L300.581 307.978C301.04 307.845 301.46 307.6 301.801 307.263C302.023 307.023 302.185 306.732 302.271 306.416C302.358 306.1 302.367 305.768 302.299 305.447C302.234 305.122 302.092 304.817 301.886 304.558C301.679 304.299 301.414 304.093 301.111 303.957C300.382 303.636 299.693 303.831 299.181 304.036C298.795 304.189 298.409 304.349 298.023 304.513C296.384 305.227 294.801 306.066 293.29 307.022C292.847 307.293 292.418 307.587 292.006 307.902C291.544 308.237 291.15 308.658 290.848 309.142C290.661 309.473 290.564 309.848 290.567 310.228C290.569 310.609 290.671 310.982 290.862 311.311C291.038 311.617 291.291 311.871 291.596 312.048C291.902 312.225 292.248 312.318 292.601 312.319ZM300.289 305.076C300.392 305.076 300.494 305.096 300.588 305.136C300.703 305.19 300.804 305.271 300.881 305.372C300.958 305.472 301.01 305.59 301.032 305.715C301.059 305.834 301.057 305.958 301.026 306.076C300.996 306.194 300.937 306.304 300.857 306.395C300.653 306.577 300.41 306.709 300.146 306.781L300.003 306.831C299.598 306.98 299.195 307.146 298.766 307.339C298.06 307.657 297.324 308.026 296.45 308.497C295.7 308.894 294.975 309.336 294.278 309.819C293.954 310.046 293.648 310.299 293.363 310.574L293.332 310.605C293.072 310.86 292.867 311.041 292.595 311.041C292.464 311.042 292.335 311.008 292.221 310.943C292.107 310.877 292.013 310.782 291.948 310.668C291.871 310.533 291.83 310.379 291.83 310.223C291.83 310.066 291.871 309.913 291.948 309.777C292.174 309.439 292.461 309.147 292.794 308.914C293.17 308.627 293.561 308.359 293.965 308.113C295.42 307.192 296.942 306.383 298.519 305.694C298.882 305.536 299.254 305.381 299.629 305.235C299.837 305.142 300.061 305.088 300.289 305.076Z" fill="#6F8C93"/>
<path d="M324.311 304.28C325.615 303.199 326.68 301.73 326.941 300.04C327.242 298.11 326.488 296.205 326.078 294.3C325.669 292.395 325.726 290.105 327.209 288.867C328.982 287.392 332 288.095 333.488 286.325C334.527 285.087 334.302 283.204 333.711 281.691C333.119 280.177 332.252 278.722 332.165 277.095C332.057 275.08 333.233 273.161 334.811 271.937C336.389 270.713 338.336 270.077 340.25 269.569C341.722 269.181 343.265 268.831 344.466 267.879C344.781 267.625 345.062 267.329 345.301 267C344.927 267.896 344.379 268.706 343.69 269.382C342.955 270.115 342.107 270.721 341.18 271.177C340.139 271.692 339.011 272.004 337.962 272.497C336.912 272.99 335.898 273.704 335.378 274.755C334.743 276.031 334.947 277.589 335.489 278.907C335.408 277.864 335.993 276.864 336.782 276.194C338.515 274.719 341.267 273.953 343.444 273.536C344.42 273.352 345.434 273.236 346.312 272.764C347.191 272.293 347.917 271.342 347.782 270.341C348.253 272.271 347.858 274.347 346.998 276.13C346.422 277.289 345.701 278.368 344.854 279.339C344.04 280.282 343.343 280.734 342.305 281.327C340.47 282.375 338.2 283.102 337.173 285.137C336.706 286.066 336.576 287.163 335.958 287.993C335.34 288.823 334.299 289.242 333.29 289.647C332.606 289.847 331.967 290.18 331.409 290.628C331.989 290.215 332.622 289.885 333.29 289.647C334.556 289.253 335.982 289.198 337.322 289.211C339.569 289.236 342.009 289.305 343.829 287.957C345.493 286.725 346.166 284.679 346.941 282.681C347.564 281.564 348.565 280.715 349.758 280.293C351.347 279.772 353.283 280.293 354.226 281.688C354.869 282.631 355.015 283.83 354.999 284.977C355.02 286.168 354.757 287.347 354.232 288.412C353.418 289.895 351.941 290.893 350.363 291.425C347.296 292.467 343.449 292.583 340.244 292.481C339.399 292.453 338.55 292.39 337.704 292.368C335.955 292.321 333.892 292.302 332.344 293.25C330.126 294.606 331.032 297.763 330.988 299.935C330.961 301.427 330.734 302.968 329.866 304.2C328.22 306.543 325.116 307.82 322.361 307.991C321.388 308.054 320.287 307.814 320 306.791C321.505 306.083 323.012 305.35 324.311 304.28Z" fill="#BBBBBB"/>
</svg>
